<?xml version="1.0" standalone="no"?><!DOCTYPE svg PUBLIC "-//W3C//DTD SVG 1.1//EN" "http://www.w3.org/Graphics/SVG/1.1/DTD/svg11.dtd"><svg t="1659253829659" class="icon" viewBox="0 0 1024 1024" version="1.1" xmlns="http://www.w3.org/2000/svg" p-id="8501" xmlns:xlink="http://www.w3.org/1999/xlink" width="200" height="200"><defs><style type="text/css">@font-face { font-family: feedback-iconfont; src: url("//at.alicdn.com/t/font_1031158_u69w8yhxdu.woff2?t=1630033759944") format("woff2"), url("//at.alicdn.com/t/font_1031158_u69w8yhxdu.woff?t=1630033759944") format("woff"), url("//at.alicdn.com/t/font_1031158_u69w8yhxdu.ttf?t=1630033759944") format("truetype"); }
</style></defs><path d="M365.728 512q0 30.272-21.44 51.712t-51.712 21.44-51.712-21.44-21.44-51.712 21.44-51.712 51.712-21.44 51.712 21.44 21.44 51.712zM585.152 512q0 30.272-21.44 51.712t-51.712 21.44-51.712-21.44-21.44-51.712 21.44-51.712 51.712-21.44 51.712 21.44 21.44 51.712zM804.576 512q0 30.272-21.44 51.712t-51.712 21.44-51.712-21.44-21.44-51.712 21.44-51.712 51.712-21.44 51.712 21.44 21.44 51.712zM512 219.424q-116.576 0-218.016 39.712t-161.152 107.136-59.712 145.728q0 64 40.864 122.016t115.136 100.288l49.728 28.576-15.424 54.848q-13.728 52-40 98.272 86.848-36 157.152-97.728l24.576-21.728 32.576 3.424q39.424 4.576 74.272 4.576 116.576 0 217.984-39.712t161.152-107.136 59.712-145.728-59.712-145.728-161.152-107.136-218.016-39.712zM1024 512q0 99.424-68.576 183.712t-186.272 133.152-257.152 48.864q-40 0-82.848-4.576-113.152 100-262.848 138.272-28 8-65.152 12.576l-2.848 0q-8.576 0-15.424-6.016t-9.152-15.712l0-0.576q-1.728-2.272-0.288-6.848t1.152-5.728 2.56-5.44l3.424-5.152t4-4.864 4.576-5.152q4-4.576 17.728-19.712t19.712-21.728 17.728-22.56 18.56-29.152 15.424-33.728 14.848-43.424q-89.728-50.848-141.44-125.728t-51.712-160.576q0-74.272 40.576-142.016t109.152-116.864 163.424-78.016 198.848-28.864 198.848 28.864 163.424 78.016 109.152 116.864 40.576 142.016z" p-id="8502"></path></svg>