<?xml version="1.0" standalone="no"?><!DOCTYPE svg PUBLIC "-//W3C//DTD SVG 1.1//EN"
  "http://www.w3.org/Graphics/SVG/1.1/DTD/svg11.dtd">
<svg t="1659261606290" class="icon" viewBox="0 0 1024 1024" version="1.1" xmlns="http://www.w3.org/2000/svg" p-id="4095"
     width="200" height="200">
  <defs>
  </defs>
  <path
    d="M624 51.2A347.84 347.84 0 0 0 292.8 292.48a348.48 348.48 0 1 0 259.2 645.12c96-46.08 25.6-190.08-70.08-144a188.48 188.48 0 1 1 101.76-210.24 187.52 187.52 0 0 1-85.76-43.52c-79.04-71.04-185.6 48.32-106.88 119.04a348.48 348.48 0 1 0 232.96-608z m115.84 496.96a349.12 349.12 0 0 0-264-264 188.16 188.16 0 1 1 264 264z"
    fill="#1c86d1" p-id="4096"></path>
</svg>
