<svg width="16" height="16" viewBox="0 0 16 16" fill="none" xmlns="http://www.w3.org/2000/svg">
<mask id="path-1-inside-1_2908_90450" fill="white">
<path fill-rule="evenodd" clip-rule="evenodd" d="M8 1C4.13401 1 1 4.13401 1 8C1 11.866 4.13401 15 8 15C11.866 15 15 11.866 15 8C15 4.13401 11.866 1 8 1ZM7.40913 4.10607C7.46771 3.69602 7.18278 3.31612 6.77273 3.25754C6.36268 3.19896 5.98278 3.48388 5.9242 3.89393L5.78762 4.85H4.7619C4.34769 4.85 4.0119 5.18579 4.0119 5.6C4.0119 6.01421 4.34769 6.35 4.7619 6.35H5.57334L5.10191 9.65H4C3.58579 9.65 3.25 9.98579 3.25 10.4C3.25 10.8142 3.58579 11.15 4 11.15H4.88762L4.78135 11.8939C4.72277 12.304 5.00769 12.6839 5.41774 12.7425C5.82779 12.801 6.20769 12.5161 6.26627 12.1061L7.08857 6.35H9.38286L8.91143 9.65H8.19048C7.77626 9.65 7.44048 9.98579 7.44048 10.4C7.44048 10.8142 7.77626 11.15 8.19048 11.15H8.69715L8.59087 11.8939C8.53229 12.304 8.81722 12.6839 9.22727 12.7425C9.63732 12.801 10.0172 12.5161 10.0758 12.1061L10.2124 11.15H11.2381C11.6523 11.15 11.9881 10.8142 11.9881 10.4C11.9881 9.98579 11.6523 9.65 11.2381 9.65H10.4267L10.8981 6.35H12C12.4142 6.35 12.75 6.01421 12.75 5.6C12.75 5.18579 12.4142 4.85 12 4.85H11.1124L11.2187 4.10607C11.2772 3.69602 10.9923 3.31612 10.5823 3.25754C10.1722 3.19896 9.79231 3.48388 9.73373 3.89393L9.59715 4.85H7.30285L7.40913 4.10607Z"/>
</mask>
<path fill-rule="evenodd" clip-rule="evenodd" d="M8 1C4.13401 1 1 4.13401 1 8C1 11.866 4.13401 15 8 15C11.866 15 15 11.866 15 8C15 4.13401 11.866 1 8 1ZM7.40913 4.10607C7.46771 3.69602 7.18278 3.31612 6.77273 3.25754C6.36268 3.19896 5.98278 3.48388 5.9242 3.89393L5.78762 4.85H4.7619C4.34769 4.85 4.0119 5.18579 4.0119 5.6C4.0119 6.01421 4.34769 6.35 4.7619 6.35H5.57334L5.10191 9.65H4C3.58579 9.65 3.25 9.98579 3.25 10.4C3.25 10.8142 3.58579 11.15 4 11.15H4.88762L4.78135 11.8939C4.72277 12.304 5.00769 12.6839 5.41774 12.7425C5.82779 12.801 6.20769 12.5161 6.26627 12.1061L7.08857 6.35H9.38286L8.91143 9.65H8.19048C7.77626 9.65 7.44048 9.98579 7.44048 10.4C7.44048 10.8142 7.77626 11.15 8.19048 11.15H8.69715L8.59087 11.8939C8.53229 12.304 8.81722 12.6839 9.22727 12.7425C9.63732 12.801 10.0172 12.5161 10.0758 12.1061L10.2124 11.15H11.2381C11.6523 11.15 11.9881 10.8142 11.9881 10.4C11.9881 9.98579 11.6523 9.65 11.2381 9.65H10.4267L10.8981 6.35H12C12.4142 6.35 12.75 6.01421 12.75 5.6C12.75 5.18579 12.4142 4.85 12 4.85H11.1124L11.2187 4.10607C11.2772 3.69602 10.9923 3.31612 10.5823 3.25754C10.1722 3.19896 9.79231 3.48388 9.73373 3.89393L9.59715 4.85H7.30285L7.40913 4.10607Z" fill="black"/>
<path d="M6.77273 3.25754L7.05558 1.27764L7.05557 1.27764L6.77273 3.25754ZM7.40913 4.10607L9.38903 4.38891L9.38903 4.38891L7.40913 4.10607ZM5.9242 3.89393L7.9041 4.17678V4.17678L5.9242 3.89393ZM5.78762 4.85V6.85H7.52221L7.76752 5.13284L5.78762 4.85ZM5.57334 6.35L7.55324 6.63284L7.87936 4.35H5.57334V6.35ZM5.10191 9.65V11.65H6.8365L7.08181 9.93284L5.10191 9.65ZM4.88762 11.15L6.86752 11.4328L7.19364 9.15H4.88762V11.15ZM4.78135 11.8939L6.76125 12.1768L6.76125 12.1768L4.78135 11.8939ZM6.26627 12.1061L4.28637 11.8232L4.28637 11.8232L6.26627 12.1061ZM7.08857 6.35V4.35H5.35398L5.10867 6.06716L7.08857 6.35ZM9.38286 6.35L11.3628 6.63284L11.6889 4.35H9.38286V6.35ZM8.91143 9.65V11.65H10.646L10.8913 9.93284L8.91143 9.65ZM8.69715 11.15L10.677 11.4328L11.0032 9.15H8.69715V11.15ZM8.59087 11.8939L6.61097 11.6111V11.6111L8.59087 11.8939ZM10.0758 12.1061L12.0557 12.3889L12.0557 12.3889L10.0758 12.1061ZM10.2124 11.15V9.15H8.47779L8.23248 10.8672L10.2124 11.15ZM10.4267 9.65L8.44676 9.36716L8.12064 11.65H10.4267V9.65ZM10.8981 6.35V4.35H9.1635L8.91819 6.06716L10.8981 6.35ZM11.1124 4.85L9.13248 4.56716L8.80636 6.85H11.1124V4.85ZM11.2187 4.10607L13.1986 4.38891L13.1986 4.38891L11.2187 4.10607ZM10.5823 3.25754L10.8651 1.27764L10.8651 1.27764L10.5823 3.25754ZM9.73373 3.89393L11.7136 4.17678L11.7136 4.17678L9.73373 3.89393ZM9.59715 4.85V6.85H11.3317L11.577 5.13284L9.59715 4.85ZM7.30285 4.85L5.32295 4.56716L4.99683 6.85H7.30285V4.85ZM3 8C3 5.23858 5.23858 3 8 3V-1C3.02944 -1 -1 3.02944 -1 8H3ZM8 13C5.23858 13 3 10.7614 3 8H-1C-1 12.9706 3.02944 17 8 17V13ZM13 8C13 10.7614 10.7614 13 8 13V17C12.9706 17 17 12.9706 17 8H13ZM8 3C10.7614 3 13 5.23858 13 8H17C17 3.02944 12.9706 -1 8 -1V3ZM6.48989 5.23744C5.80647 5.13981 5.3316 4.50664 5.42923 3.82322L9.38903 4.38891C9.60382 2.88539 8.55909 1.49243 7.05558 1.27764L6.48989 5.23744ZM7.9041 4.17678C7.80647 4.86019 7.17331 5.33507 6.48989 5.23744L7.05557 1.27764C5.55206 1.06285 4.15909 2.10757 3.94431 3.61109L7.9041 4.17678ZM7.76752 5.13284L7.9041 4.17678L3.94431 3.61109L3.80772 4.56716L7.76752 5.13284ZM4.7619 6.85H5.78762V2.85H4.7619V6.85ZM6.0119 5.6C6.0119 6.29036 5.45226 6.85 4.7619 6.85V2.85C3.24312 2.85 2.0119 4.08122 2.0119 5.6H6.0119ZM4.7619 4.35C5.45226 4.35 6.0119 4.90964 6.0119 5.6H2.0119C2.0119 7.11878 3.24312 8.35 4.7619 8.35V4.35ZM5.57334 4.35H4.7619V8.35H5.57334V4.35ZM7.08181 9.93284L7.55324 6.63284L3.59344 6.06716L3.12201 9.36716L7.08181 9.93284ZM4 11.65H5.10191V7.65H4V11.65ZM5.25 10.4C5.25 11.0904 4.69036 11.65 4 11.65V7.65C2.48122 7.65 1.25 8.88122 1.25 10.4H5.25ZM4 9.15C4.69036 9.15 5.25 9.70964 5.25 10.4H1.25C1.25 11.9188 2.48122 13.15 4 13.15V9.15ZM4.88762 9.15H4V13.15H4.88762V9.15ZM6.76125 12.1768L6.86752 11.4328L2.90772 10.8672L2.80145 11.6111L6.76125 12.1768ZM5.70059 10.7626C6.384 10.8602 6.85888 11.4934 6.76125 12.1768L2.80145 11.6111C2.58666 13.1146 3.63138 14.5076 5.1349 14.7224L5.70059 10.7626ZM4.28637 11.8232C4.384 11.1398 5.01717 10.6649 5.70059 10.7626L5.1349 14.7224C6.63842 14.9371 8.03138 13.8924 8.24617 12.3889L4.28637 11.8232ZM5.10867 6.06716L4.28637 11.8232L8.24617 12.3889L9.06847 6.63284L5.10867 6.06716ZM9.38286 4.35H7.08857V8.35H9.38286V4.35ZM10.8913 9.93284L11.3628 6.63284L7.40296 6.06716L6.93153 9.36716L10.8913 9.93284ZM8.19048 11.65H8.91143V7.65H8.19048V11.65ZM9.44048 10.4C9.44048 11.0904 8.88083 11.65 8.19048 11.65V7.65C6.67169 7.65 5.44048 8.88122 5.44048 10.4H9.44048ZM8.19048 9.15C8.88083 9.15 9.44048 9.70964 9.44048 10.4H5.44048C5.44048 11.9188 6.67169 13.15 8.19048 13.15V9.15ZM8.69715 9.15H8.19048V13.15H8.69715V9.15ZM10.5708 12.1768L10.677 11.4328L6.71725 10.8672L6.61097 11.6111L10.5708 12.1768ZM9.51011 10.7626C10.1935 10.8602 10.6684 11.4934 10.5708 12.1768L6.61097 11.6111C6.39618 13.1146 7.44091 14.5076 8.94443 14.7224L9.51011 10.7626ZM8.0959 11.8232C8.19353 11.1398 8.82669 10.6649 9.51011 10.7626L8.94443 14.7224C10.4479 14.9371 11.8409 13.8924 12.0557 12.3889L8.0959 11.8232ZM8.23248 10.8672L8.0959 11.8232L12.0557 12.3889L12.1923 11.4328L8.23248 10.8672ZM11.2381 9.15H10.2124V13.15H11.2381V9.15ZM9.9881 10.4C9.9881 9.70964 10.5477 9.15 11.2381 9.15V13.15C12.7569 13.15 13.9881 11.9188 13.9881 10.4H9.9881ZM11.2381 11.65C10.5477 11.65 9.9881 11.0904 9.9881 10.4H13.9881C13.9881 8.88122 12.7569 7.65 11.2381 7.65V11.65ZM10.4267 11.65H11.2381V7.65H10.4267V11.65ZM8.91819 6.06716L8.44676 9.36716L12.4066 9.93284L12.878 6.63284L8.91819 6.06716ZM12 4.35H10.8981V8.35H12V4.35ZM10.75 5.6C10.75 4.90964 11.3096 4.35 12 4.35V8.35C13.5188 8.35 14.75 7.11878 14.75 5.6H10.75ZM12 6.85C11.3096 6.85 10.75 6.29035 10.75 5.6H14.75C14.75 4.08122 13.5188 2.85 12 2.85V6.85ZM11.1124 6.85H12V2.85H11.1124V6.85ZM9.23875 3.82322L9.13248 4.56716L13.0923 5.13284L13.1986 4.38891L9.23875 3.82322ZM10.2994 5.23744C9.616 5.13981 9.14112 4.50664 9.23875 3.82322L13.1986 4.38891C13.4133 2.88539 12.3686 1.49243 10.8651 1.27764L10.2994 5.23744ZM11.7136 4.17678C11.616 4.86019 10.9828 5.33507 10.2994 5.23744L10.8651 1.27764C9.36158 1.06285 7.96862 2.10757 7.75383 3.61109L11.7136 4.17678ZM11.577 5.13284L11.7136 4.17678L7.75383 3.61109L7.61725 4.56716L11.577 5.13284ZM7.30285 6.85H9.59715V2.85H7.30285V6.85ZM5.42923 3.82322L5.32295 4.56716L9.28275 5.13284L9.38903 4.38891L5.42923 3.82322Z" fill="black" mask="url(#path-1-inside-1_2908_90450)"/>
</svg>
