<?xml version="1.0" standalone="no"?><!DOCTYPE svg PUBLIC "-//W3C//DTD SVG 1.1//EN" "http://www.w3.org/Graphics/SVG/1.1/DTD/svg11.dtd"><svg t="1659867823051" class="icon" viewBox="0 0 1024 1024" version="1.1" xmlns="http://www.w3.org/2000/svg" p-id="7414" xmlns:xlink="http://www.w3.org/1999/xlink" width="200" height="200"><defs><style type="text/css">@font-face { font-family: feedback-iconfont; src: url("//at.alicdn.com/t/font_1031158_u69w8yhxdu.woff2?t=1630033759944") format("woff2"), url("//at.alicdn.com/t/font_1031158_u69w8yhxdu.woff?t=1630033759944") format("woff"), url("//at.alicdn.com/t/font_1031158_u69w8yhxdu.ttf?t=1630033759944") format("truetype"); }
</style></defs><path d="M414 75.1h196.1C578.5 68 545.7 64.3 512 64.3c-33.7 0.1-66.5 3.8-98 10.8z" fill="#00D995" p-id="7415"></path><path d="M362.9 89.8l298.3 0.1c-16.6-5.9-33.6-10.8-51.1-14.7H414c-17.4 3.8-34.5 8.7-51.1 14.6z" fill="#01D996" p-id="7416"></path><path d="M326.6 104.4l370.9 0.1c-11.8-5.4-24-10.3-36.3-14.7l-298.3-0.1c-12.3 4.4-24.5 9.3-36.3 14.7z" fill="#01D997" p-id="7417"></path><path d="M297.3 119.1l429.4 0.1c-9.5-5.2-19.3-10.1-29.3-14.7l-370.9-0.1c-9.9 4.6-19.6 9.4-29.2 14.7z" fill="#01D898" p-id="7418"></path><path d="M272.5 133.7l479.1 0.1c-8.1-5.1-16.4-10-24.8-14.7l-429.4-0.1c-8.5 4.7-16.8 9.6-24.9 14.7z" fill="#01D899" p-id="7419"></path><path d="M250.8 148.4l522.5 0.1c-7.1-5.1-14.3-10-21.7-14.7l-479.1-0.1c-7.4 4.7-14.6 9.6-21.7 14.7z" fill="#01D89A" p-id="7420"></path><path d="M231.5 163l561 0.1c-6.3-5.1-12.7-9.9-19.3-14.7l-522.5-0.1c-6.4 4.8-12.9 9.7-19.2 14.7z" fill="#01D79B" p-id="7421"></path><path d="M214.2 177.7l595.6 0.1c-5.6-5-11.4-9.9-17.3-14.7l-561-0.1c-5.8 4.8-11.6 9.6-17.3 14.7z" fill="#01D79C" p-id="7422"></path><path d="M198.6 192.3l627 0.1c-5.1-5-10.3-9.9-15.7-14.7l-595.6-0.1c-5.4 4.8-10.6 9.7-15.7 14.7z" fill="#02D79D" p-id="7423"></path><path d="M184.3 207l655.5 0.1c-4.7-5-9.4-9.9-14.3-14.7l-627-0.1c-4.8 4.8-9.6 9.7-14.2 14.7z" fill="#02D79E" p-id="7424"></path><path d="M171.2 221.6l681.6 0.1c-4.2-5-8.6-9.9-13-14.7H184.3c-4.5 4.8-8.8 9.6-13.1 14.6z" fill="#02D69F" p-id="7425"></path><path d="M159.2 236.3l705.6 0.1c-3.9-5-7.9-9.9-12-14.7l-681.6-0.1c-4.1 4.8-8.1 9.7-12 14.7z" fill="#02D6A0" p-id="7426"></path><path d="M148.2 250.9l727.6 0.1c-3.6-5-7.2-9.9-11-14.7l-705.6-0.1c-3.7 4.9-7.4 9.8-11 14.7z" fill="#02D6A1" p-id="7427"></path><path d="M138.1 265.6l747.8 0.1c-3.3-5-6.7-9.8-10.1-14.7l-727.6-0.1c-3.4 4.8-6.8 9.7-10.1 14.7z" fill="#02D5A2" p-id="7428"></path><path d="M128.8 280.2l766.4 0.2c-3-5-6.1-9.8-9.3-14.7l-747.8-0.1c-3.2 4.8-6.3 9.7-9.3 14.6z" fill="#02D5A3" p-id="7429"></path><path d="M120.3 294.9l783.4 0.2c-2.8-4.9-5.6-9.8-8.5-14.7l-766.4-0.2c-2.9 4.9-5.7 9.7-8.5 14.7z" fill="#02D5A4" p-id="7430"></path><path d="M112.5 309.5l799 0.2c-2.5-4.9-5.1-9.8-7.8-14.7l-783.4-0.2c-2.7 4.9-5.3 9.8-7.8 14.7z" fill="#03D4A5" p-id="7431"></path><path d="M105.4 324.2l813.2 0.2c-2.3-4.9-4.7-9.8-7.1-14.7l-799-0.2c-2.4 4.9-4.8 9.8-7.1 14.7z" fill="#03D4A6" p-id="7432"></path><path d="M98.9 338.8l826.2 0.2c-2.1-4.9-4.2-9.8-6.5-14.7l-813.2-0.2c-2.2 4.9-4.4 9.8-6.5 14.7z" fill="#03D4A7" p-id="7433"></path><path d="M93.1 353.5l837.9 0.2c-1.9-4.9-3.8-9.8-5.8-14.7L99 338.8c-2.1 4.9-4.1 9.8-5.9 14.7z" fill="#03D4A8" p-id="7434"></path><path d="M87.8 368.2l848.4 0.2c-1.7-4.9-3.4-9.8-5.3-14.7L93 353.5c-1.8 4.8-3.5 9.7-5.2 14.7z" fill="#03D3A9" p-id="7435"></path><path d="M83.1 382.8l857.8 0.2c-1.5-4.9-3-9.8-4.7-14.7l-848.4-0.2c-1.6 4.9-3.2 9.8-4.7 14.7z" fill="#03D3AA" p-id="7436"></path><path d="M79 397.5l866 0.2c-1.3-4.9-2.7-9.8-4.1-14.7l-857.8-0.2c-1.4 4.9-2.8 9.7-4.1 14.7z" fill="#03D3AB" p-id="7437"></path><path d="M75.4 412.1l873.2 0.2c-1.1-4.9-2.3-9.8-3.6-14.7l-866-0.2c-1.3 4.9-2.5 9.8-3.6 14.7z" fill="#04D2AC" p-id="7438"></path><path d="M72.3 426.8l879.4 0.2c-1-4.9-2-9.8-3.1-14.7l-873.2-0.2c-1.1 4.9-2.2 9.8-3.1 14.7z" fill="#04D2AD" p-id="7439"></path><path d="M69.7 441.4l884.6 0.2c-0.8-4.9-1.6-9.8-2.6-14.7l-879.4-0.2c-1 4.9-1.8 9.8-2.6 14.7z" fill="#04D2AE" p-id="7440"></path><path d="M67.6 456.1l888.7 0.2c-0.6-4.9-1.3-9.8-2.1-14.7l-884.6-0.2c-0.7 4.9-1.4 9.8-2 14.7z" fill="#04D1AF" p-id="7441"></path><path d="M66 470.7l891.9 0.2c-0.5-4.9-1-9.8-1.6-14.7L67.6 456c-0.6 4.9-1.1 9.8-1.6 14.7z" fill="#04D1B0" p-id="7442"></path><path d="M64.9 485.4l894.1 0.2c-0.3-4.9-0.7-9.8-1.1-14.6L66 470.7c-0.4 4.9-0.8 9.8-1.1 14.7z" fill="#04D1B1" p-id="7443"></path><path d="M64.3 500l895.3 0.2c-0.1-4.9-0.3-9.8-0.6-14.6l-894.1-0.2c-0.3 4.9-0.5 9.7-0.6 14.6z" fill="#04D1B2" p-id="7444"></path><path d="M64.3 500c-0.1 4-0.2 8.1-0.2 12.2v2.5l895.6 0.2v-2.7c0-4-0.1-8-0.2-12" fill="#05D0B3" p-id="7445"></path><path d="M64.5 529.4l895 0.2c0.2-4.9 0.3-9.8 0.3-14.7l-895.6-0.2c0 4.9 0.1 9.8 0.3 14.7z" fill="#05D0B4" p-id="7446"></path><path d="M65.3 544l893.4 0.2c0.3-4.9 0.6-9.8 0.8-14.7l-895-0.2c0.1 5 0.4 9.8 0.8 14.7z" fill="#05D0B5" p-id="7447"></path><path d="M66.5 558.7l890.9 0.2c0.5-4.9 0.9-9.8 1.3-14.7L65.3 544c0.3 4.9 0.7 9.8 1.2 14.7z" fill="#05CFB6" p-id="7448"></path><path d="M68.3 573.3l887.4 0.2c0.7-4.9 1.2-9.8 1.8-14.7l-890.9-0.2c0.4 5 1 9.9 1.7 14.7z" fill="#05CFB7" p-id="7449"></path><path d="M70.5 588l882.9 0.2c0.8-4.9 1.6-9.7 2.3-14.7l-887.4-0.2c0.6 4.9 1.4 9.8 2.2 14.7z" fill="#05CFB8" p-id="7450"></path><path d="M73.3 602.6l877.4 0.2c1-4.9 1.9-9.7 2.8-14.7l-883-0.1c0.9 4.9 1.8 9.8 2.8 14.6z" fill="#05CEB9" p-id="7451"></path><path d="M76.5 617.3l870.8 0.2c1.2-4.8 2.3-9.7 3.3-14.7l-877.4-0.2 3.3 14.7z" fill="#06CEBA" p-id="7452"></path><path d="M80.3 631.9l863.2 0.2c1.3-4.8 2.6-9.7 3.8-14.7l-870.8-0.2c1.2 5 2.5 9.9 3.8 14.7z" fill="#06CEBB" p-id="7453"></path><path d="M84.6 646.6l854.6 0.2c1.5-4.8 3-9.7 4.3-14.7l-863.2-0.2c1.4 5 2.8 9.8 4.3 14.7z" fill="#06CEBD" p-id="7454"></path><path d="M89.5 661.2l844.8 0.2c1.7-4.8 3.3-9.7 4.9-14.7l-854.6-0.2c1.6 5 3.2 9.9 4.9 14.7z" fill="#06CDBE" p-id="7455"></path><path d="M95 675.9l833.9 0.2c1.9-4.8 3.7-9.7 5.5-14.7l-844.8-0.2c1.7 5 3.5 9.9 5.4 14.7z" fill="#06CDBF" p-id="7456"></path><path d="M101.1 690.6l821.8 0.2c2.1-4.8 4.1-9.7 6.1-14.7l-834-0.2c1.9 4.9 4 9.8 6.1 14.7z" fill="#06CDC0" p-id="7457"></path><path d="M107.7 705.2l808.4 0.2c2.3-4.8 4.5-9.7 6.7-14.7l-821.8-0.2c2.2 5 4.4 9.9 6.7 14.7z" fill="#06CCC1" p-id="7458"></path><path d="M115.1 719.9l793.7 0.2c2.5-4.8 5-9.7 7.3-14.7l-808.4-0.2c2.4 5 4.9 9.8 7.4 14.7z" fill="#07CCC2" p-id="7459"></path><path d="M123.1 734.5l777.6 0.2c2.8-4.8 5.5-9.7 8-14.7l-793.7-0.2c2.7 5 5.4 9.9 8.1 14.7z" fill="#07CCC3" p-id="7460"></path><path d="M131.9 749.2l760.1 0.2c3-4.8 5.9-9.7 8.8-14.7l-777.6-0.2c2.8 5 5.7 9.9 8.7 14.7z" fill="#07CBC4" p-id="7461"></path><path d="M141.5 763.8l740.9 0.2c3.3-4.8 6.5-9.7 9.6-14.7l-760.1-0.2c3.1 5 6.3 9.9 9.6 14.7z" fill="#07CBC5" p-id="7462"></path><path d="M151.9 778.5l720.1 0.2c3.6-4.8 7-9.7 10.4-14.7l-740.9-0.2c3.3 5 6.8 9.9 10.4 14.7z" fill="#07CBC6" p-id="7463"></path><path d="M163.2 793.2l697.4 0.1c3.9-4.8 7.7-9.7 11.3-14.7l-720.1-0.2c3.7 5.1 7.5 10 11.4 14.8z" fill="#07CBC7" p-id="7464"></path><path d="M175.5 807.8l672.7 0.1c4.2-4.8 8.3-9.7 12.4-14.7l-697.4-0.1c4 5 8.1 9.9 12.3 14.7z" fill="#07CAC8" p-id="7465"></path><path d="M189 822.5l645.8 0.1c4.6-4.8 9.1-9.7 13.5-14.7l-672.7-0.1c4.3 5 8.8 9.9 13.4 14.7z" fill="#08CAC9" p-id="7466"></path><path d="M203.8 837.1l616.3 0.1c5-4.8 10-9.7 14.8-14.7H189c4.8 5 9.7 9.9 14.8 14.6z" fill="#08CACA" p-id="7467"></path><path d="M220 851.8l583.8 0.1c5.5-4.8 10.9-9.6 16.2-14.7l-616.3-0.1c5.3 5 10.8 9.9 16.3 14.7z" fill="#08C9CB" p-id="7468"></path><path d="M237.9 866.4l547.9 0.1c6.1-4.7 12.1-9.6 18-14.7H220c5.8 5 11.8 9.9 17.9 14.6z" fill="#08C9CC" p-id="7469"></path><path d="M248.3 874.2l527.2 0.1c3.5-2.5 7-5.2 10.4-7.8l-547.9-0.1c3.3 2.7 6.8 5.3 10.3 7.8zM512 960.1c98.5 0 189.6-31.8 263.5-85.7l-527.2-0.1c74 53.9 165.1 85.8 263.7 85.8z" fill="#08C9CC" p-id="7470"></path><path d="M457.7 568.9c0-82.7 79-149.9 176-149.9 5.4 0 10.8 0.3 16.1 0.7C633.2 342.6 552.6 284 455.4 284c-109.2 0-197.6 73.8-197.6 164.9 0 52 28.8 98.4 73.9 128.6 9 6-19.6 47.3-9.4 51.9 8.2 3.7 55-28.8 63.8-26 21.6 6.7 44.9 10.4 69.3 10.4 3.4 0 6.8-0.3 10.1-0.4-5.1-14.1-7.8-29-7.8-44.5m64.7-204c17.3 0 31.3 12.5 31.3 28s-14 28-31.3 28-31.3-12.6-31.3-28c0-15.5 14-28 31.3-28m-136.9 56c-17.3 0-31.3-12.6-31.3-28 0-15.5 14-28 31.3-28s31.3 12.5 31.3 28-14 28-31.3 28" fill="#FFFFFF" p-id="7471"></path><path d="M710.1 545.3v9.2H695L520.6 660.2c28.6 24.7 68.7 40 113.1 40 19.4 0 38-2.9 55.1-8.3 3.5-1.1 14.3 4.7 25.1 10.4 11.2 5.9 22.4 11.8 25.7 10.3 8.1-3.7-14.6-36.5-7.5-41.3 35.9-24.1 58.9-61 58.9-102.4 0-22.3-6.7-43.2-18.4-61.6l-62.5 38z" fill="#FFFFFF" p-id="7472"></path><path d="M695 554.4h15.1v-9.1l-14.6 8.8zM695 554.4l0.5-0.3zM710.1 545.3l62.6-37.9c-0.7-1.1-1.4-2.2-2.2-3.3l-60.4 36.6v4.6zM687.3 554.4l-169.9 103c1 0.9 2.1 1.9 3.1 2.8L695 554.4h-7.7zM695.5 554.1l14.6-8.8z" fill="#FFFFFF" p-id="7473"></path><path d="M710.1 545.3v-4.7l-2.1 1.3c-3.6 7.2-11.5 12.3-20.7 12.5h7.7l0.5-0.3 14.6-8.8zM687.3 554.4z" fill="#FFFFFF" p-id="7474"></path><path d="M686.8 554.4h-7.2L514.5 654.6c1 1 2 1.9 3 2.8l169.9-103h-0.6zM710.1 540.6l60.4-36.6c-0.8-1.1-1.5-2.2-2.3-3.3l-58 35.2v4.7zM708 541.9l2.1-1.3-2.1 1.3zM680.7 553.8l-1 0.6h7.2c-2.1 0-4.1-0.2-6-0.7l-0.2 0.1zM708 541.9l2.1-1.3v-4.7l-0.3 0.2c-0.3 2-0.9 4-1.8 5.8zM686.8 554.4h0.5-0.5zM679.6 554.4l1.1-0.6z" fill="#FDFFFF" p-id="7475"></path><path d="M710.1 531.2v4.7l58-35.2c-0.8-1.1-1.6-2.1-2.4-3.2l-55.6 33.7zM671.9 554.4l-160.4 97.3 2.9 2.9 165.2-100.2h-7.7zM680.8 553.7l-0.1 0.1zM709.9 536.1l0.2-0.2-0.2 0.2z" fill="#FCFFFE" p-id="7476"></path><path d="M680.8 553.7c-1.7-0.4-3.3-1-4.8-1.7l-4 2.4h7.7l1-0.6 0.1-0.1zM710.1 535.9v-3c0 1.1-0.1 2.1-0.3 3.1l0.3-0.1zM710.1 532.9v-1.7h-0.1c0.1 0.6 0.1 1.2 0.1 1.7zM676 552l-4.1 2.4 4.1-2.4zM710.1 531.3v-0.1 0.1z" fill="#FCFFFE" p-id="7477"></path><path d="M664.2 554.4l-155.5 94.3c0.9 1 1.9 2 2.8 3l160.4-97.3h-7.7zM710.1 526.6v4.7l55.6-33.7c-0.8-1.1-1.7-2.1-2.5-3.1l-53.1 32.1z" fill="#FAFFFE" p-id="7478"></path><path d="M710.1 531.3l0.1-4.7-0.9 0.5c0.4 1.4 0.6 2.8 0.8 4.2zM672.1 549.6l-7.9 4.8h7.7l4-2.4c-1.3-0.7-2.6-1.5-3.8-2.4zM709.3 527.1l0.8-0.5-0.8 0.5zM672.1 549.6l-7.9 4.8 7.9-4.8z" fill="#FAFFFE" p-id="7479"></path><path d="M710.1 526.6l53.1-32.2c-0.9-1-1.7-2.1-2.6-3.1l-50.5 30.6v4.7zM663.4 554.4v-4.2L506 645.7l2.7 3 155.5-94.3h-0.8z" fill="#F8FFFE" p-id="7480"></path><path d="M669 546.8l-5.6 3.4v4.2h0.8l7.9-4.8c-1.1-0.8-2.2-1.7-3.1-2.8zM709.3 527.1l0.9-0.5v-4.7l-2.4 1.5c0.5 1.2 1.1 2.4 1.5 3.7z" fill="#F8FFFE" p-id="7481"></path><path d="M663.4 550.2v-4.7l-160 97.1c0.8 1 1.7 2.1 2.6 3.1l157.4-95.5zM710.1 521.9l50.5-30.6-2.7-3-47.7 29v4.6zM707.7 523.4l2.4-1.5-2.4 1.5zM669 546.8l-5.6 3.4 5.6-3.4zM666.6 543.7l-3.1 1.9v4.7l5.6-3.4c-1-1-1.8-2.1-2.5-3.2zM707.7 523.4l2.4-1.5v-4.7l-4.7 2.8c0.9 1.1 1.7 2.2 2.3 3.4z" fill="#F6FEFD" p-id="7482"></path><path d="M710.1 517.2l47.7-29c-0.9-1-1.9-2-2.8-2.9l-44.9 27.2v4.7zM663.4 545.6v-4.7l-162.5 98.6c0.8 1.1 1.6 2.1 2.5 3.2l160-97.1zM705.5 520.1l4.6-2.9-4.6 2.9zM666.6 543.7l-3.2 1.9 3.2-1.9z" fill="#F5FEFD" p-id="7483"></path><path d="M705.5 520.1l4.7-2.8v-4.7l-7.5 4.6c0.9 0.8 1.9 1.8 2.8 2.9zM664.8 540.1l-1.3 0.8v4.7l3.1-1.9c-0.7-1.2-1.4-2.4-1.8-3.6zM664.8 540.1l-1.4 0.8 1.4-0.8z" fill="#F5FEFD" p-id="7484"></path><path d="M663.4 536.2l-164.9 100c0.8 1.1 1.6 2.2 2.4 3.2l162.5-98.6v-4.6zM704.3 511.4h5.9v1.1l44.9-27.2c-1-1-2-1.9-2.9-2.9l-47.9 29zM702.6 517.1l7.5-4.5-7.5 4.5z" fill="#F3FEFD" p-id="7485"></path><path d="M702.6 517.1l7.5-4.6v-1.1h-5.9l-5.3 3.2c1.4 0.8 2.6 1.6 3.7 2.5zM663.7 536.1l-0.3 0.2v4.7l1.3-0.8c-0.4-1.4-0.8-2.7-1-4.1zM663.7 536.1l-0.3 0.1 0.3-0.1zM699 514.6l5.3-3.2-5.3 3.2z" fill="#F3FEFD" p-id="7486"></path><path d="M663.4 532.9v-1.4L496.3 632.9c0.7 1.1 1.5 2.2 2.3 3.3l164.9-100v-3.3zM696.6 511.4h7.7l47.8-29c-1-1-2-1.9-3.1-2.8l-52.4 31.8z" fill="#F1FEFC" p-id="7487"></path><path d="M663.4 531.5v1.4c0-0.5 0.1-0.9 0-1.4z" fill="#F1FEFC" p-id="7488"></path><path d="M663.4 532.9v3.3l0.3-0.2c-0.2-1-0.3-2-0.3-3.1zM699 514.6l5.3-3.2h-7.7l-2 1.2c1.5 0.6 3 1.2 4.4 2zM663.5 531.5h-0.1 0.1zM694.6 512.7l2-1.3-2 1.3z" fill="#F1FEFC" p-id="7489"></path><path d="M688.9 511.4h7.7l52.5-31.8c-1-0.9-2.1-1.8-3.2-2.8l-57 34.6zM663.4 526.9L494.1 629.6c0.7 1.1 1.4 2.2 2.2 3.4l167.2-101.4v-4.7z" fill="#F0FEFC" p-id="7490"></path><path d="M664.6 526.2l-1.2 0.7v4.7h0.1c0.1-1.9 0.5-3.7 1.1-5.4zM694.6 512.7l2-1.2h-7.7l-0.1 0.1c2 0.1 3.9 0.5 5.8 1.1zM688.7 511.5l0.2-0.1-0.2 0.1z" fill="#F0FEFC" p-id="7491"></path><path d="M681.2 511.4H688.9l57-34.6-3.3-2.7-61.4 37.3zM663.4 526.9v-4.7L492 626.2c0.7 1.1 1.4 2.3 2.1 3.4l169.3-102.7zM664.6 526.2l-1.2 0.7 1.2-0.7zM679.3 512.6c2.3-0.7 4.9-1.1 7.5-1.1h-5.6l-1 0.6-0.9 0.5z" fill="#EEFEFC" p-id="7492"></path><path d="M669.4 518.6l-6 3.6v4.7l1.2-0.7c1-2.9 2.7-5.4 4.8-7.6zM688.9 511.4h-2.1c0.7 0 1.3 0 2 0.1l0.1-0.1zM681.2 511.4l-1 0.6z" fill="#EEFEFC" p-id="7493"></path><path d="M673.5 511.4h7.7l61.4-37.3c-1.1-0.9-2.2-1.8-3.4-2.6l-65.7 39.9zM663.4 522.2v-4.7L608 551.1v3.3h-5.4L490 622.7c0.6 1.2 1.3 2.3 2 3.5l171.4-104z" fill="#ECFEFB" p-id="7494"></path><path d="M608.1 554.4v-3.3l-5.5 3.3zM602.6 554.4l5.5-3.3-5.5 3.3zM679.3 512.6l0.9-0.6zM669.4 518.6l-6 3.6 6-3.6zM679.3 512.6l0.9-0.5 1-0.6h-7.7l-10 6.1v4.7l6-3.6c2.6-2.8 6-4.9 9.8-6.1zM673.5 511.4l-10.1 6.1 10.1-6.1z" fill="#ECFEFB" p-id="7495"></path><path d="M663.4 512.9l-55.3 33.6v4.6l55.3-33.6v-4.6zM665.8 511.4h7.7l65.8-39.9c-1.1-0.9-2.3-1.7-3.5-2.6l-70 42.5zM595 554.4l-106.7 64.7 1.8 3.6 112.6-68.3H595zM606.2 547.6l-11.2 6.8h7.6l5.5-3.3v-4.6zM595 554.4l11.2-6.8zM665.8 511.4l-2.4 1.5v4.6l10.1-6.1zM665.8 511.4l-2.4 1.5z" fill="#EAFEFB" p-id="7496"></path><path d="M608.1 546.5l55.4-33.6v-1.4h2.3l70-42.4c-1.2-0.8-2.4-1.7-3.6-2.5l-124.1 75.3v4.6zM587.3 554.4l-100.7 61.1c0.6 1.2 1.1 2.4 1.7 3.6L595 554.4h-7.7zM608.1 546.5l-1.9 1.1z" fill="#E9FEFB" p-id="7497"></path><path d="M608.1 546.5v-4.7l-3.1 1.9c-3.6 5.7-10 9.7-17.4 10.6l-0.3 0.2h7.7l11.3-6.8 1.8-1.2zM587.5 554.3l-0.2 0.1 0.2-0.1zM663.4 511.4v1.5l2.4-1.5z" fill="#E9FEFB" p-id="7498"></path><path d="M608.1 541.8l124.1-75.3c-1.2-0.8-2.5-1.6-3.7-2.4l-120.4 73v4.7zM584.7 554.4h-5.2l-94.6 57.4c0.5 1.2 1.1 2.5 1.6 3.7l100.7-61.1h-2.5zM604.9 543.7l3.2-1.9-3.2 1.9zM584.7 554.4h2.5l0.3-0.2c-0.9 0.2-1.8 0.2-2.8 0.2z" fill="#E7FEFA" p-id="7499"></path><path d="M579.6 554.4h5.2c-1.5 0-3-0.1-4.5-0.4l-0.7 0.4zM604.9 543.7l3.1-1.9v-4.7l-0.5 0.3c-0.5 2.3-1.4 4.4-2.6 6.3zM580.2 554l-0.6 0.4 0.6-0.4z" fill="#E7FEFA" p-id="7500"></path><path d="M571.9 554.4L483.4 608c0.5 1.3 1 2.5 1.5 3.8l94.6-57.4h-7.6zM608.1 532.9v4.2l120.4-73c-1.3-0.8-2.5-1.6-3.8-2.3l-116.5 70.7v0.4zM607.5 537.4l0.6-0.3-0.6 0.3z" fill="#E5FDFA" p-id="7501"></path><path d="M608.1 537.1v-4.2c0 1.5-0.2 3.1-0.5 4.5l0.5-0.3zM575.1 552.5l-3.2 1.9h7.7l0.7-0.4c-1.9-0.3-3.6-0.8-5.2-1.5zM608.1 532.9v-0.5 0.5z" fill="#E5FDFA" p-id="7502"></path><path d="M571.9 554.4h-7.7l-82.1 49.8c0.4 1.3 0.9 2.6 1.4 3.8l88.4-53.6zM608.1 527.8v4.7l116.5-70.7c-1.3-0.8-2.6-1.5-4-2.3l-112.5 68.3zM575.1 552.5l-3.2 1.9 3.2-1.9zM608.1 532.5v-0.1 0.1zM608.1 532.5v-4.7l-0.6 0.4c0.3 1.3 0.5 2.8 0.6 4.3zM571 550.3l-3 1.8-3.8 2.3h7.7l3.2-1.9c-1.5-0.6-2.9-1.4-4.1-2.2zM571 550.3l-3.1 1.8zM607.5 528.1l0.6-0.3-0.6 0.3z" fill="#E4FDFA" p-id="7503"></path><path d="M608.1 523.1v4.7l112.6-68.3c-1.3-0.7-2.7-1.5-4.1-2.2l-108.5 65.8zM564.2 554.4h-2.8v-3l-80.5 48.9 1.2 3.9 82.1-49.8zM564.2 554.4l3.7-2.3zM607.5 528.1l0.6-0.4V523l-2 1.2c0.6 1.3 1 2.6 1.4 3.9z" fill="#E2FDF9" p-id="7504"></path><path d="M571 550.3c-1.2-0.8-2.3-1.7-3.3-2.7l-6.3 3.8v3h2.8l3.8-2.3 3-1.8zM606.1 524.3l2-1.2-2 1.2z" fill="#E2FDF9" p-id="7505"></path><path d="M608.1 523.1l108.5-65.8-4.2-2.1-104.3 63.2v4.7zM561.4 551.4v-4.7l-81.6 49.5c0.3 1.3 0.7 2.7 1.1 4l80.5-48.8zM567.7 547.6l-6.3 3.8 6.3-3.8zM606.1 524.3l2-1.2v-4.7l-4 2.4c0.7 1.2 1.4 2.3 2 3.5z" fill="#E0FDF9" p-id="7506"></path><path d="M565.1 544.5l-3.7 2.2v4.7l6.3-3.8c-1-1-1.8-2-2.6-3.1z" fill="#E0FDF9" p-id="7507"></path><path d="M608.1 518.4l104.3-63.2c-1.4-0.7-2.9-1.4-4.4-2l-99.9 60.6v4.6zM561.4 546.7V542l-82.6 50.1c0.3 1.4 0.6 2.7 1 4.1l81.6-49.5zM604.1 520.9l4-2.5-4 2.5zM565.1 544.5l-3.7 2.2 3.7-2.2z" fill="#DEFDF9" p-id="7508"></path><path d="M604.1 520.9l4-2.4v-4.7l-6.7 4.1c0.9 0.9 1.9 1.9 2.7 3zM563.1 541l-1.7 1v4.7l3.7-2.2c-0.8-1.1-1.4-2.2-2-3.5zM563.1 541l-1.7 1.1 1.7-1.1z" fill="#DEFDF9" p-id="7509"></path><path d="M608.1 511.4v2.3l99.9-60.6c-1.5-0.7-3-1.3-4.5-1.9l-99.3 60.2h3.9zM561.4 537.4L478 588c0.2 1.4 0.5 2.8 0.8 4.2l82.6-50.1v-4.7zM601.3 517.8l6.8-4-6.8 4z" fill="#DDFDF8" p-id="7510"></path><path d="M601.3 517.8l6.7-4.1v-2.3h-3.9l-6.2 3.8c1.3 0.8 2.4 1.7 3.4 2.6zM561.8 537.1l-0.5 0.3v4.7l1.7-1c-0.4-1.3-0.9-2.6-1.2-4zM561.8 537.1l-0.4 0.3 0.4-0.3z" fill="#DDFDF8" p-id="7511"></path><path d="M604.2 511.4l99.3-60.2c-1.5-0.6-3.1-1.3-4.6-1.8l-102.3 62.1h7.6zM561.4 532.9v-0.2l-84.1 51c0.2 1.4 0.4 2.9 0.7 4.3l83.4-50.6v-4.5zM598 515.2l6.2-3.8-6.2 3.8zM561.4 532.7v0z" fill="#DBFDF8" p-id="7512"></path><path d="M598 515.2l6.2-3.8h-7.7l-2.7 1.7c1.4 0.6 2.8 1.3 4.2 2.1zM561.4 532.9v4.5l0.5-0.3c-0.3-1.3-0.5-2.7-0.5-4.2z" fill="#DBFDF8" p-id="7513"></path><path d="M561.4 532.7V528l-84.6 51.3c0.1 1.5 0.3 2.9 0.5 4.4l84.1-51zM588.8 511.4h7.7l102.3-62.1c-1.6-0.6-3.2-1.2-4.8-1.7l-105.2 63.8zM593.8 513.1l2.7-1.7-2.7 1.7zM561.4 532.7zM562.1 527.6l-0.7 0.4v4.7c0-1.7 0.3-3.4 0.7-5.1zM593.8 513.1l2.7-1.7h-7.7l-0.4 0.3c1.9 0.3 3.7 0.8 5.4 1.4zM588.4 511.7l0.4-0.3-0.4 0.3z" fill="#D9FDF8" p-id="7514"></path><path d="M581.1 511.4H588.8L694 447.6c-1.6-0.6-3.3-1.1-5-1.6l-107.9 65.4zM561.4 528.1v-4.7l-84.9 51.5 0.3 4.5 84.6-51.3zM562.1 527.6l-0.7 0.5 0.7-0.5zM588.8 511.4h-4.1c1.2 0 2.5 0.1 3.7 0.3l0.4-0.3z" fill="#D8FDF7" p-id="7515"></path><path d="M584.7 511.4h-3.6l-0.6 0.4c1.4-0.2 2.8-0.4 4.2-0.4zM565.3 521l-3.9 2.4v4.7l0.7-0.4c0.7-2.4 1.8-4.7 3.2-6.7zM580.5 511.8l0.6-0.4-0.6 0.4z" fill="#D8FDF7" p-id="7516"></path><path d="M573.4 511.4h7.7L689 446c-1.7-0.5-3.4-1.1-5.2-1.5l-110.4 66.9zM561.4 523.4v-4.7l-85.1 51.6c0 1.5 0.1 3.1 0.1 4.6l85-51.5zM565.3 521l-3.9 2.4 3.9-2.4z" fill="#D6FCF7" p-id="7517"></path><path d="M580.5 511.8l0.6-0.4h-7.7l-12 7.3v4.7l3.9-2.4c3.4-4.7 8.9-8.1 15.2-9.2zM573.4 511.4l-12 7.3 12-7.3z" fill="#D6FCF7" p-id="7518"></path><path d="M561.4 514.1l-85 51.6V570.4l85.1-51.6v-4.7zM565.7 511.4h7.7l110.4-67c-1.8-0.5-3.6-1-5.4-1.4l-112.7 68.4z" fill="#D4FCF7" p-id="7519"></path><path d="M565.7 511.4l-2.1 1.3-2.2 1.4v4.6l12-7.3zM565.7 511.4l-2.1 1.3z" fill="#D4FCF7" p-id="7520"></path><path d="M561.4 514.1v-2.6h4.3l112.8-68.4c-1.8-0.5-3.7-0.9-5.6-1.3l-196.3 119-0.3 4.8 85.1-51.5zM561.4 514.1l2.2-1.4z" fill="#D2FCF6" p-id="7521"></path><path d="M565.7 511.4h-4.3v2.7l2.2-1.4z" fill="#D2FCF6" p-id="7522"></path><path d="M667.1 440.6l-190 115.2c-0.2 1.6-0.3 3.3-0.5 5l196.3-119c-1.9-0.4-3.9-0.8-5.8-1.2z" fill="#D1FCF6" p-id="7523"></path><path d="M661 439.6L477.8 550.7c-0.3 1.7-0.5 3.4-0.7 5.1l190-115.2c-2-0.3-4.1-0.7-6.1-1z" fill="#CFFCF6" p-id="7524"></path><path d="M654.7 438.8L478.8 545.5c-0.4 1.7-0.7 3.5-1 5.3L661 439.6c-2.1-0.3-4.2-0.5-6.3-0.8z" fill="#CDFCF5" p-id="7525"></path><path d="M648 438.2L480.2 540c-0.5 1.8-0.9 3.6-1.3 5.5l175.8-106.6c-2.3-0.3-4.5-0.5-6.7-0.7z" fill="#CCFCF5" p-id="7526"></path><path d="M640.9 437.8l-159.1 96.5c-0.6 1.9-1.2 3.8-1.7 5.7L648 438.2c-2.4-0.2-4.7-0.3-7.1-0.4z" fill="#CAFCF5" p-id="7527"></path><path d="M633.7 437.7h-0.3L484 528.3c-0.8 2-1.5 4-2.1 6L641 437.8c-2.5-0.1-4.9-0.1-7.3-0.1z" fill="#C8FCF4" p-id="7528"></path><path d="M625.5 437.8L486.7 522c-1 2.1-1.8 4.2-2.7 6.3l149.4-90.6c-2.6 0-5.3 0-7.9 0.1z" fill="#C6FCF4" p-id="7529"></path><path d="M616.8 438.4L490 515.3c-1.2 2.2-2.3 4.4-3.3 6.7l138.8-84.2-8.7 0.6z" fill="#C5FBF4" p-id="7530"></path><path d="M607.3 439.5l-113.1 68.6c-1.5 2.4-2.9 4.8-4.2 7.2l126.8-76.9c-3.2 0.3-6.3 0.7-9.5 1.1z" fill="#C3FBF3" p-id="7531"></path><path d="M596.6 441.3l-97 58.8c-1.9 2.6-3.7 5.3-5.4 8l113.1-68.6c-3.6 0.5-7.2 1.1-10.7 1.8z" fill="#C1FBF3" p-id="7532"></path><path d="M583.9 444.4L507.1 491c-2.6 3-5.1 6-7.4 9.2l97-58.8c-4.4 0.8-8.6 1.8-12.8 3z" fill="#C0FBF3" p-id="7533"></path><path d="M566.8 450.1l-47.8 29c-4.2 3.8-8.2 7.7-11.9 11.9l76.8-46.6c-5.9 1.6-11.6 3.5-17.1 5.7z" fill="#BEFBF2" p-id="7534"></path><path d="M519 479.1l47.8-29c-18.1 7.1-34.3 17-47.8 29z" fill="#BCFBF2" p-id="7535"></path></svg>